<!DOCTYPE svg PUBLIC "-//W3C//DTD SVG 1.1//EN" "http://www.w3.org/Graphics/SVG/1.1/DTD/svg11.dtd">
<!-- PDFTron PDFNet Generated! Version: 7.1.0.74195 -->
<svg id="svgRoot" version="1.1" baseProfile="Full" width="595px" height="842px" viewBox="0 0 595 842" xmlns="http://www.w3.org/2000/svg" xmlns:xlink="http://www.w3.org/1999/xlink" xmlns:cs="http://www.pdftron.com/pdf2svg" xml:space="preserve">
<defs>
</defs>
<style type="text/css">
<![CDATA[
.ps02 { stroke:#000000;fill:none; }
.ps03 { stroke:none;fill:#000000;fill-rule:nonzero; }
.ps01 { stroke:none;fill:#FFFFFF;fill-rule:nonzero; }
.ps00 { stroke:none;fill:none; }
.ps10 { stroke-width:8;stroke-linecap:butt;stroke-linejoin:miter;stroke-miterlimit:10; }
.ps11 { stroke-width:8;stroke-linecap:round;stroke-linejoin:miter;stroke-miterlimit:10; }
]]>
</style>
<clipPath id="clp1" clip-rule="nonzero">
<rect x="0" y="0" width="595" height="842"/>
</clipPath>
<g clip-path="url(#clp1)" transform="matrix(1 0 0 -1 -0 842)">
<g id="q1" class="">
<g id="xfrm2" transform="matrix(0.75 0 0 -0.75 0 842)">
<g id="q3" class="">
<g id="xfrm4" transform="matrix(1.33333 0 0 -1.33333 0 1122.67)">
<g id="q5" class="">
<g id="xfrm6" transform="matrix(0.75 0 0 -0.75 28.5 813.5)">
<g id="q7" class="">
<clipPath id="clp2" clip-rule="evenodd">
<path d="M0 0 L717 0 L717 1046.7 L0 1046.7 L0 0 Z"/>
</clipPath>
<g clip-path="url(#clp2)">
</g>
</g>
<g id="q8" class="">
<clipPath id="clp3" clip-rule="evenodd">
<path d="M0 0 L717 0 L717 1046.7 L0 1046.7 L0 0 Z"/>
</clipPath>
<g clip-path="url(#clp3)">
</g>
</g>
<g id="q9" class="">
<clipPath id="clp4" clip-rule="evenodd">
<path d="M0 0 L717 0 L717 1046.7 L0 1046.7 L0 0 Z"/>
</clipPath>
<g clip-path="url(#clp4)">
<g id="q10" class="ps00">
<clipPath id="clp5" clip-rule="evenodd">
<path d="M6.4018 0 L246.47 0 L246.47 240.07 L6.4018 240.07 L6.4018 0 Z"/>
</clipPath>
<g clip-path="url(#clp5)">
<g id="q11" class="ps00">
<path d="M22.406 16.005 L54.415 16.005 L70.42 32.009 L102.43 32.009 L102.43 96.027 L22.406 96.027 L22.406 16.005 Z" class="ps01"/>
</g>
<g id="q12" class="ps00">
<g id="xfrm13" transform="matrix(0.800223 0 0 0.800223 6.40179 0)">
<g id="q14" class="">
<path d="M20 20 L60 20 L80 40 L120 40 L120 120 L20 120 L20 20 Z" class="ps02 ps10"/>
</g>
</g>
</g>
<g id="q15" class="ps00">
<path d="M22.406 52.014 L102.43 52.014" class="ps03"/>
</g>
<g id="q16" class="ps00">
<g id="xfrm17" transform="matrix(0.800223 0 0 0.800223 6.40179 0)">
<g id="q18" class="">
<path d="M20 65 L120 65" class="ps02 ps11"/>
</g>
</g>
</g>
</g>
</g>
</g>
</g>
<g id="q19" class="">
<clipPath id="clp6" clip-rule="evenodd">
<path d="M0 0 L717 0 L717 1046.7 L0 1046.7 L0 0 Z"/>
</clipPath>
<g clip-path="url(#clp6)">
</g>
</g>
</g>
</g>
</g>
</g>
</g>
</g>
</g>
</svg>
