<!DOCTYPE svg PUBLIC "-//W3C//DTD SVG 1.1//EN" "http://www.w3.org/Graphics/SVG/1.1/DTD/svg11.dtd">
<!-- PDFTron PDFNet Generated! Version: 7.1.0.74195 -->
<svg id="svgRoot" version="1.1" baseProfile="Full" width="595px" height="842px" viewBox="0 0 595 842" xmlns="http://www.w3.org/2000/svg" xmlns:xlink="http://www.w3.org/1999/xlink" xmlns:cs="http://www.pdftron.com/pdf2svg" xml:space="preserve">
<defs>
</defs>
<style type="text/css">
<![CDATA[
.ps01 { stroke:#000000;fill:none; }
.ps02 { stroke:none;fill:#000000;fill-rule:nonzero; }
.ps00 { stroke:none;fill:none; }
.ps10 { stroke-width:5;stroke-linecap:butt;stroke-linejoin:miter;stroke-miterlimit:10; }
]]>
</style>
<clipPath id="clp1" clip-rule="nonzero">
<rect x="0" y="0" width="595" height="842"/>
</clipPath>
<g clip-path="url(#clp1)" transform="matrix(1 0 0 -1 -0 842)">
<g id="q1" class="">
<g id="xfrm2" transform="matrix(0.75 0 0 -0.75 0 842)">
<g id="q3" class="">
<g id="xfrm4" transform="matrix(1.33333 0 0 -1.33333 0 1122.67)">
<g id="q5" class="">
<g id="xfrm6" transform="matrix(0.75 0 0 -0.75 28.5 813.5)">
<g id="q7" class="">
<clipPath id="clp2" clip-rule="evenodd">
<path d="M0 0 L717 0 L717 1046.7 L0 1046.7 L0 0 Z"/>
</clipPath>
<g clip-path="url(#clp2)">
</g>
</g>
<g id="q8" class="">
<clipPath id="clp3" clip-rule="evenodd">
<path d="M0 0 L717 0 L717 1046.7 L0 1046.7 L0 0 Z"/>
</clipPath>
<g clip-path="url(#clp3)">
</g>
</g>
<g id="q9" class="">
<clipPath id="clp4" clip-rule="evenodd">
<path d="M0 0 L717 0 L717 1046.7 L0 1046.7 L0 0 Z"/>
</clipPath>
<g clip-path="url(#clp4)">
<g id="q10" class="ps00">
<clipPath id="clp5" clip-rule="evenodd">
<path d="M6.4018 0 L246.47 0 L246.47 240.07 L6.4018 240.07 L6.4018 0 Z"/>
</clipPath>
<g clip-path="url(#clp5)">
<g id="q11" class="ps00">
<g id="xfrm12" transform="matrix(0.800223 0 0 0.800223 6.40179 0)">
<g id="q13" class="">
<path d="M50 90 L25 90 L25 50 L65 50 L65 110" class="ps01 ps10"/>
</g>
</g>
</g>
</g>
</g>
</g>
</g>
<g id="q14" class="">
<clipPath id="clp6" clip-rule="evenodd">
<path d="M0 0 L717 0 L717 1046.7 L0 1046.7 L0 0 Z"/>
</clipPath>
<g clip-path="url(#clp6)">
<g id="q15" class="ps00">
<clipPath id="clp7" clip-rule="evenodd">
<path d="M6.4018 0 L246.47 0 L246.47 240.07 L6.4018 240.07 L6.4018 0 Z"/>
</clipPath>
<g clip-path="url(#clp7)">
<g id="q16" class="ps00">
<clipPath id="clp8" clip-rule="evenodd">
<path d="M66.419 88.025 L66.419 108.03 L50.414 108.03 L50.414 88.025 L66.419 88.025 Z"/>
</clipPath>
<g clip-path="url(#clp8)">
<g id="q17" class="ps00">
<path d="M66.419 88.025 L58.416 108.03 L50.414 88.025 L66.419 88.025 Z" class="ps02"/>
</g>
</g>
</g>
</g>
</g>
</g>
</g>
<g id="q18" class="">
<clipPath id="clp9" clip-rule="evenodd">
<path d="M0 0 L717 0 L717 1046.7 L0 1046.7 L0 0 Z"/>
</clipPath>
<g clip-path="url(#clp9)">
<g id="q19" class="ps00">
<clipPath id="clp10" clip-rule="evenodd">
<path d="M6.4018 0 L246.47 0 L246.47 240.07 L6.4018 240.07 L6.4018 0 Z"/>
</clipPath>
<g clip-path="url(#clp10)">
<g id="q20" class="ps00">
<g id="xfrm21" transform="matrix(0.800223 0 0 0.800223 6.40179 0)">
<g id="q22" class="">
<path d="M100 50 L125 50 L125 90 L85 90 L85 30" class="ps01 ps10"/>
</g>
</g>
</g>
</g>
</g>
</g>
</g>
<g id="q23" class="">
<clipPath id="clp11" clip-rule="evenodd">
<path d="M0 0 L717 0 L717 1046.7 L0 1046.7 L0 0 Z"/>
</clipPath>
<g clip-path="url(#clp11)">
<g id="q24" class="ps00">
<clipPath id="clp12" clip-rule="evenodd">
<path d="M6.4018 0 L246.47 0 L246.47 240.07 L6.4018 240.07 L6.4018 0 Z"/>
</clipPath>
<g clip-path="url(#clp12)">
<g id="q25" class="ps00">
<clipPath id="clp13" clip-rule="evenodd">
<path d="M66.419 24.007 L66.419 4.0011 L82.423 4.0011 L82.423 24.007 L66.419 24.007 Z"/>
</clipPath>
<g clip-path="url(#clp13)">
<g id="q26" class="ps00">
<path d="M66.419 24.007 L74.421 4.0011 L82.423 24.007 L66.419 24.007 Z" class="ps02"/>
</g>
</g>
</g>
</g>
</g>
</g>
</g>
<g id="q27" class="">
<clipPath id="clp14" clip-rule="evenodd">
<path d="M0 0 L717 0 L717 1046.7 L0 1046.7 L0 0 Z"/>
</clipPath>
<g clip-path="url(#clp14)">
</g>
</g>
<g id="q28" class="">
<clipPath id="clp15" clip-rule="evenodd">
<path d="M0 0 L717 0 L717 1046.7 L0 1046.7 L0 0 Z"/>
</clipPath>
<g clip-path="url(#clp15)">
</g>
</g>
</g>
</g>
</g>
</g>
</g>
</g>
</g>
</svg>
